<svg display='none' xmlns="http://www.w3.org/2000/svg">
<symbol id='telegram' viewBox="0 0 50 50">
<path d="M46.137,6.552c-0.75-0.636-1.928-0.727-3.146-0.238l-0.002,0C41.708,6.828,6.728,21.832,5.304,22.445	c-0.259,0.09-2.521,0.934-2.288,2.814c0.208,1.695,2.026,2.397,2.248,2.478l8.893,3.045c0.59,1.964,2.765,9.21,3.246,10.758	c0.3,0.965,0.789,2.233,1.646,2.494c0.752,0.29,1.5,0.025,1.984-0.355l5.437-5.043l8.777,6.845l0.209,0.125	c0.596,0.264,1.167,0.396,1.712,0.396c0.421,0,0.825-0.079,1.211-0.237c1.315-0.54,1.841-1.793,1.896-1.935l6.556-34.077	C47.231,7.933,46.675,7.007,46.137,6.552z M22,32l-3,8l-3-10l23-17L22,32z"/>
</symbol>
<symbol id='github' viewBox="0 0 64 64">
<path d="M32 6C17.641 6 6 17.641 6 32c0 12.277 8.512 22.56 19.955 25.286-.592-.141-1.179-.299-1.755-.479V50.85c0 0-.975.325-2.275.325-3.637 0-5.148-3.245-5.525-4.875-.229-.993-.827-1.934-1.469-2.509-.767-.684-1.126-.686-1.131-.92-.01-.491.658-.471.975-.471 1.625 0 2.857 1.729 3.429 2.623 1.417 2.207 2.938 2.577 3.721 2.577.975 0 1.817-.146 2.397-.426.268-1.888 1.108-3.57 2.478-4.774-6.097-1.219-10.4-4.716-10.4-10.4 0-2.928 1.175-5.619 3.133-7.792C19.333 23.641 19 22.494 19 20.625c0-1.235.086-2.751.65-4.225 0 0 3.708.026 7.205 3.338C28.469 19.268 30.196 19 32 19s3.531.268 5.145.738c3.497-3.312 7.205-3.338 7.205-3.338.567 1.474.65 2.99.65 4.225 0 2.015-.268 3.19-.432 3.697C46.466 26.475 47.6 29.124 47.6 32c0 5.684-4.303 9.181-10.4 10.4 1.628 1.43 2.6 3.513 2.6 5.85v8.557c-.576.181-1.162.338-1.755.479C49.488 54.56 58 44.277 58 32 58 17.641 46.359 6 32 6zM33.813 57.93C33.214 57.972 32.61 58 32 58 32.61 58 33.213 57.971 33.813 57.93zM37.786 57.346c-1.164.265-2.357.451-3.575.554C35.429 57.797 36.622 57.61 37.786 57.346zM32 58c-.61 0-1.214-.028-1.813-.07C30.787 57.971 31.39 58 32 58zM29.788 57.9c-1.217-.103-2.411-.289-3.574-.554C27.378 57.61 28.571 57.797 29.788 57.9z"/>
</symbol>
<symbol id='linkedin' viewBox="0 0 50 50">
<path d="M25,2C12.318,2,2,12.317,2,25s10.318,23,23,23s23-10.317,23-23S37.682,2,25,2z M18,35h-4V20h4V35z M16,17 c-1.105,0-2-0.895-2-2c0-1.105,0.895-2,2-2s2,0.895,2,2C18,16.105,17.105,17,16,17z M37,35h-4v-5v-2.5c0-1.925-1.575-3.5-3.5-3.5 S26,25.575,26,27.5V35h-4V20h4v1.816C27.168,20.694,28.752,20,30.5,20c3.59,0,6.5,2.91,6.5,6.5V35z"/>
</symbol>
<symbol id='gmail' viewBox="0 0 30 30">
<path d="M 4 5 C 2.9069372 5 2 5.9069372 2 7 L 2 23 C 2 24.093063 2.9069372 25 4 25 L 26 25 C 27.093063 25 28 24.093063 28 23 L 28 7 C 28 5.9069372 27.093063 5 26 5 L 4 5 z M 6.6992188 7 L 23.300781 7 L 15 13.134766 L 6.6992188 7 z M 5 9.4746094 L 15 16.865234 L 25 9.4746094 L 25 23 L 5 23 L 5 9.4746094 z"/>
</symbol>
</svg>